<?xml version="1.0" encoding="utf-8"?>
<!-- Generator: Adobe Illustrator 22.0.1, SVG Export Plug-In . SVG Version: 6.00 Build 0)  -->
<svg version="1.1" id="Layer_1" xmlns="http://www.w3.org/2000/svg" xmlns:xlink="http://www.w3.org/1999/xlink" x="0px" y="0px"
	 viewBox="0 0 269.5 269.7" style="enable-background:new 0 0 269.5 269.7;" xml:space="preserve">
<style type="text/css">
	.st0{fill:#373636;}
</style>
<g>
	<path class="st0" d="M134.8,0.9c-73.9,0-134,60.1-134,134c0,73.9,60.1,133.9,134,133.9s134-60.1,134-133.9
		C268.7,61,208.6,0.9,134.8,0.9z M134.8,257.8c-67.8,0-123-55.2-123-122.9c0-67.8,55.2-123,123-123s123,55.2,123,123
		C257.7,202.6,202.6,257.8,134.8,257.8z"/>
	<polygon class="st0" points="102.5,133.8 135.2,102.8 167.9,133.8 177.6,123.7 145.4,93.1 177.6,62.5 167.9,52.4 135.2,83.5 
		102.5,52.4 92.9,62.5 125.1,93.1 92.9,123.7 	"/>
	<polygon class="st0" points="142.9,148.9 142.9,162.9 173.4,162.9 134.2,210.2 198.3,210.2 198.3,196.2 164,196.2 203.2,148.9 	"/>
	<path class="st0" d="M102.4,148.9H71.2v61.3h31.2c16.9,0,30.6-13.7,30.6-30.6C133,162.6,119.3,148.9,102.4,148.9z M102.4,196.2
		H85.2v-33.3h17.2c9.2,0,16.6,7.5,16.6,16.6C119,188.7,111.6,196.2,102.4,196.2z"/>
</g>
</svg>
