<?xml version="1.0" encoding="utf-8"?>
<!-- Generator: Adobe Illustrator 22.0.1, SVG Export Plug-In . SVG Version: 6.00 Build 0)  -->
<svg version="1.1" id="Layer_1" xmlns="http://www.w3.org/2000/svg" xmlns:xlink="http://www.w3.org/1999/xlink" x="0px" y="0px"
	 viewBox="0 0 446.5 77.7" style="enable-background:new 0 0 446.5 77.7;" xml:space="preserve">
<style type="text/css">
	.st0{fill:#373636;}
</style>
<g>
	<polygon class="st0" points="68.5,0 51.1,0 35.5,22.5 19.9,0 2.5,0 26.8,35 0,73.7 17.3,73.7 35.5,47.5 53.7,73.7 71,73.7 44.2,35 
			"/>
	<path class="st0" d="M122.9,41.3L122.9,41.3c-0.3-0.1-0.6-0.1-1-0.2l-0.8-0.2c-5.8-1.1-9.1-2.3-9.1-5.2c0-2.2,3.1-3.4,6.1-3.4
		c3.4,0,6.2,1.4,8.4,4.1l1.3,1.6l10.3-7.8l-1-1.6c-3.5-5.7-10.2-9-18.5-9c-9.9,0-20.6,5.4-20.6,17.1c0,11,8.5,14,16.6,16l1.3,0.3
		c5.7,1.2,8.8,2.4,8.8,5.2c0,2.7-4,4.1-7.8,4.1c-4.6,0-7.7-2.5-10.4-5.2l-1.3-1.3l-10,8.2l1.2,1.6c4.9,6.7,11,9.5,20.6,9.5
		c10.1,0,21.9-4.6,21.9-17.5C138.8,46.6,130.8,43.2,122.9,41.3z"/>
	<path class="st0" d="M217.9,19.4c-15.7,0-28.1,12.2-28.1,27.8c0,15.6,12.3,27.8,28.1,27.8c15.7,0,28.1-12.2,28.1-27.8
		C245.9,31.6,233.6,19.4,217.9,19.4z M231.9,47.2c0,8.9-5.6,15-14,15c-8.4,0-14-6-14-15c0-9,5.6-15,14-15
		C226.2,32.2,231.9,38.2,231.9,47.2z"/>
	<path class="st0" d="M370.7,19.4c-7.9,0-15.6,2.9-20.8,7.8l-1.5,1.4l8.3,8.6l2.1-1.6c3.1-2.4,6-4.6,12-4.6c6.6,0,9.6,4.1,9.6,8.2
		h-4.7c-18.7,0-29,6.7-29,19c0,9.9,7.8,16.8,19,16.8c6.4,0,11.4-1.8,15.3-5.4v4.1h12.3V37.8C393.2,28.9,387.3,19.4,370.7,19.4z
		 M380.4,50.2v1c0,2.9-0.9,12.2-11.9,12.2c-8.5,0-8.5-4.4-8.5-5.9c0-6,9.5-7.3,17.4-7.3H380.4z"/>
	<rect x="75.6" y="20.7" class="st0" width="13.4" height="53.1"/>
	<rect x="75.6" class="st0" width="13.4" height="13.4"/>
	<polygon class="st0" points="443.8,28.8 443.8,20.7 401.2,20.7 401.2,32.9 423.3,32.9 400.1,61.9 399.9,62.2 399.9,73.7 
		443.8,73.7 443.8,61.5 417.7,61.5 443.6,29.1 	"/>
	<path class="st0" d="M171.1,32.2c3.8,0,7.1,1.2,9.6,3.5l0.8,0.7l8.3-10.3l-0.8-0.6c-5-4.1-11.2-6.2-17.9-6.2
		c-15.7,0-28.1,12.2-28.1,27.8c0,15.6,12.3,27.8,28.1,27.8c6.6,0,12.8-2.1,17.9-6.2l0.8-0.6l-8.3-10.3l-0.8,0.7
		c-2.5,2.3-5.8,3.5-9.5,3.5c-8.4,0-14-6-14-15C157.1,38.2,162.7,32.2,171.1,32.2z"/>
	<path class="st0" d="M279.5,0h-24.7v73.7h24.7c23.5,0,38.1-14.1,38.1-36.9C317.6,14.1,303,0,279.5,0z M280.3,60.2h-11.4V13.6h11.4
		c14,0,22.4,8.7,22.4,23.3S294.3,60.2,280.3,60.2z"/>
	<rect x="325.8" y="20.7" class="st0" width="13.4" height="53.1"/>
	<polygon class="st0" points="349.5,0 330.8,0 325.3,13.4 336.7,13.4 	"/>
</g>
</svg>
